<svg xmlns="http://www.w3.org/2000/svg" viewBox="0 0 420 340" role="img" aria-label="Alzado dibujado del mueble Mesa Serrín, con sus medidas">
<title>Mesa Serrín</title>
<defs><clipPath id="m1"><rect x="50" y="120" width="320" height="20" rx="2"/></clipPath><clipPath id="m2"><rect x="70" y="140" width="16" height="150" rx="2"/></clipPath><clipPath id="m3"><rect x="334" y="140" width="16" height="150" rx="2"/></clipPath><clipPath id="m4"><rect x="86" y="160" width="248" height="12" rx="2"/></clipPath></defs>
<g class="mueble__piezas"><rect x="50" y="120" width="320" height="20" rx="2" fill="#6E452C"/><g clip-path="url(#m1)"><path d="M46 126.0 C146 120.8, 258 131.2, 374 126.0" fill="none" stroke="#4E2F1C" stroke-width="1.6" opacity="0.37"/><path d="M46 132.3 C146 127.1, 258 137.5, 374 132.3" fill="none" stroke="#4E2F1C" stroke-width="1.5" opacity="0.36"/><path d="M46 133.9 C146 131.7, 258 136.2, 374 133.9" fill="none" stroke="#4E2F1C" stroke-width="1.8" opacity="0.57"/></g><rect x="50" y="120" width="320" height="20" rx="2" fill="none" stroke="#231D18" stroke-width="2.4"/><rect x="70" y="140" width="16" height="150" rx="2" fill="#6E452C"/><g clip-path="url(#m2)"><path d="M66 146.0 C74.8 140.7, 80.4 151.3, 90 146.0" fill="none" stroke="#4E2F1C" stroke-width="1.9" opacity="0.57"/><path d="M66 162.6 C74.8 156.3, 80.4 169.0, 90 162.6" fill="none" stroke="#4E2F1C" stroke-width="1.2" opacity="0.25"/><path d="M66 174.7 C74.8 172.1, 80.4 177.2, 90 174.7" fill="none" stroke="#4E2F1C" stroke-width="0.8" opacity="0.52"/><path d="M66 186.2 C74.8 180.1, 80.4 192.2, 90 186.2" fill="none" stroke="#4E2F1C" stroke-width="1.9" opacity="0.28"/><path d="M66 199.3 C74.8 192.5, 80.4 206.1, 90 199.3" fill="none" stroke="#4E2F1C" stroke-width="1.2" opacity="0.25"/><path d="M66 211.5 C74.8 205.2, 80.4 217.8, 90 211.5" fill="none" stroke="#4E2F1C" stroke-width="0.9" opacity="0.48"/><path d="M66 223.4 C74.8 216.5, 80.4 230.4, 90 223.4" fill="none" stroke="#4E2F1C" stroke-width="1.2" opacity="0.48"/><path d="M66 237.9 C74.8 233.6, 80.4 242.2, 90 237.9" fill="none" stroke="#4E2F1C" stroke-width="1.5" opacity="0.34"/><path d="M66 248.2 C74.8 245.9, 80.4 250.5, 90 248.2" fill="none" stroke="#4E2F1C" stroke-width="1.6" opacity="0.44"/><path d="M66 260.7 C74.8 256.6, 80.4 264.9, 90 260.7" fill="none" stroke="#4E2F1C" stroke-width="1.1" opacity="0.32"/><path d="M66 274.5 C74.8 271.8, 80.4 277.1, 90 274.5" fill="none" stroke="#4E2F1C" stroke-width="0.8" opacity="0.38"/><ellipse cx="76.0" cy="190.5" rx="5" ry="3.4" fill="none" stroke="#4E2F1C" stroke-width="1.6" opacity="0.5"/><ellipse cx="76.0" cy="190.5" rx="2" ry="1.3" fill="#4E2F1C" opacity="0.5"/></g><rect x="70" y="140" width="16" height="150" rx="2" fill="none" stroke="#231D18" stroke-width="2.4"/><rect x="334" y="140" width="16" height="150" rx="2" fill="#6E452C"/><g clip-path="url(#m3)"><path d="M330 146.0 C338.8 140.6, 344.4 151.4, 354 146.0" fill="none" stroke="#4E2F1C" stroke-width="1.4" opacity="0.33"/><path d="M330 160.2 C338.8 155.3, 344.4 165.0, 354 160.2" fill="none" stroke="#4E2F1C" stroke-width="1.5" opacity="0.55"/><path d="M330 172.2 C338.8 170.1, 344.4 174.3, 354 172.2" fill="none" stroke="#4E2F1C" stroke-width="1.4" opacity="0.54"/><path d="M330 184.7 C338.8 177.8, 344.4 191.5, 354 184.7" fill="none" stroke="#4E2F1C" stroke-width="2.0" opacity="0.30"/><path d="M330 198.6 C338.8 196.5, 344.4 200.6, 354 198.6" fill="none" stroke="#4E2F1C" stroke-width="0.8" opacity="0.38"/><path d="M330 210.0 C338.8 203.4, 344.4 216.6, 354 210.0" fill="none" stroke="#4E2F1C" stroke-width="1.7" opacity="0.59"/><path d="M330 224.7 C338.8 219.7, 344.4 229.8, 354 224.7" fill="none" stroke="#4E2F1C" stroke-width="1.0" opacity="0.29"/><path d="M330 238.6 C338.8 235.5, 344.4 241.7, 354 238.6" fill="none" stroke="#4E2F1C" stroke-width="1.4" opacity="0.27"/><path d="M330 250.2 C338.8 247.8, 344.4 252.6, 354 250.2" fill="none" stroke="#4E2F1C" stroke-width="1.0" opacity="0.43"/><path d="M330 261.0 C338.8 258.9, 344.4 263.0, 354 261.0" fill="none" stroke="#4E2F1C" stroke-width="2.0" opacity="0.31"/><path d="M330 273.3 C338.8 267.5, 344.4 279.1, 354 273.3" fill="none" stroke="#4E2F1C" stroke-width="1.8" opacity="0.27"/></g><rect x="334" y="140" width="16" height="150" rx="2" fill="none" stroke="#231D18" stroke-width="2.4"/><rect x="86" y="160" width="248" height="12" rx="2" fill="#6E452C"/><g clip-path="url(#m4)"><path d="M82 166.0 C160.39999999999998 160.6, 247.20000000000002 171.5, 338 166.0" fill="none" stroke="#4E2F1C" stroke-width="1.5" opacity="0.36"/><path d="M82 170.1 C160.39999999999998 166.9, 247.20000000000002 173.4, 338 170.1" fill="none" stroke="#4E2F1C" stroke-width="1.7" opacity="0.29"/><path d="M82 170.2 C160.39999999999998 164.8, 247.20000000000002 175.7, 338 170.2" fill="none" stroke="#4E2F1C" stroke-width="1.5" opacity="0.55"/></g><rect x="86" y="160" width="248" height="12" rx="2" fill="none" stroke="#231D18" stroke-width="2.4"/></g>

<g class="mueble__cotas"><g stroke="#7A6A58" stroke-width="1.4" fill="none">
    <path d="M50 307v10"/><path d="M370 307v10"/><path d="M50 312H370"/>
    <path d="M57 308.5L50 312l7 3.5"/><path d="M363 308.5L370 312l-7 3.5"/>
  </g>
  <text x="210" y="304" fill="#7A6A58" font-family="Overpass Mono, monospace" font-size="12" text-anchor="middle">200 cm</text><g stroke="#7A6A58" stroke-width="1.4" fill="none">
    <path d="M29 120h10"/><path d="M29 290h10"/><path d="M34 120V290"/>
    <path d="M30.5 127L34 120l3.5 7"/><path d="M30.5 283L34 290l3.5 7"/>
  </g>
  <text x="25" y="205" fill="#7A6A58" font-family="Overpass Mono, monospace" font-size="12" text-anchor="middle" transform="rotate(-90 25 205)">75 cm</text></g>
</svg>
