<svg xmlns="http://www.w3.org/2000/svg" viewBox="0 0 420 340" role="img" aria-label="Alzado dibujado del mueble Frente Barrica, con sus medidas">
<title>Frente Barrica</title>
<defs><clipPath id="a1"><rect x="60" y="40" width="130" height="250" rx="2"/></clipPath><clipPath id="a2"><rect x="196" y="40" width="130" height="250" rx="2"/></clipPath><clipPath id="a3"><rect x="332" y="40" width="8" height="250" rx="2"/></clipPath></defs>
<g class="mueble__piezas"><rect x="60" y="40" width="130" height="250" rx="2" fill="#C4A87C"/><g clip-path="url(#a1)"><path d="M56 46.0 C99 40.0, 144.5 52.0, 194 46.0" fill="none" stroke="#9E8257" stroke-width="1.9" opacity="0.37"/><path d="M56 62.4 C99 58.9, 144.5 65.8, 194 62.4" fill="none" stroke="#9E8257" stroke-width="0.8" opacity="0.38"/><path d="M56 72.8 C99 66.8, 144.5 78.8, 194 72.8" fill="none" stroke="#9E8257" stroke-width="1.9" opacity="0.41"/><path d="M56 89.9 C99 86.0, 144.5 93.8, 194 89.9" fill="none" stroke="#9E8257" stroke-width="1.2" opacity="0.48"/><path d="M56 100.7 C99 97.7, 144.5 103.7, 194 100.7" fill="none" stroke="#9E8257" stroke-width="1.2" opacity="0.39"/><path d="M56 113.7 C99 108.6, 144.5 118.8, 194 113.7" fill="none" stroke="#9E8257" stroke-width="1.9" opacity="0.52"/><path d="M56 129.0 C99 126.6, 144.5 131.4, 194 129.0" fill="none" stroke="#9E8257" stroke-width="1.3" opacity="0.49"/><path d="M56 139.5 C99 136.9, 144.5 142.1, 194 139.5" fill="none" stroke="#9E8257" stroke-width="1.4" opacity="0.57"/><path d="M56 155.1 C99 150.7, 144.5 159.5, 194 155.1" fill="none" stroke="#9E8257" stroke-width="1.3" opacity="0.54"/><path d="M56 168.8 C99 163.7, 144.5 173.9, 194 168.8" fill="none" stroke="#9E8257" stroke-width="1.6" opacity="0.39"/><path d="M56 182.7 C99 180.4, 144.5 185.0, 194 182.7" fill="none" stroke="#9E8257" stroke-width="1.0" opacity="0.36"/><path d="M56 192.7 C99 187.3, 144.5 198.0, 194 192.7" fill="none" stroke="#9E8257" stroke-width="0.9" opacity="0.43"/><path d="M56 208.9 C99 203.4, 144.5 214.3, 194 208.9" fill="none" stroke="#9E8257" stroke-width="2.0" opacity="0.43"/><path d="M56 221.2 C99 214.8, 144.5 227.7, 194 221.2" fill="none" stroke="#9E8257" stroke-width="1.7" opacity="0.35"/><path d="M56 234.1 C99 229.8, 144.5 238.4, 194 234.1" fill="none" stroke="#9E8257" stroke-width="1.1" opacity="0.27"/><path d="M56 249.4 C99 243.2, 144.5 255.6, 194 249.4" fill="none" stroke="#9E8257" stroke-width="1.2" opacity="0.58"/><path d="M56 261.6 C99 257.6, 144.5 265.6, 194 261.6" fill="none" stroke="#9E8257" stroke-width="1.3" opacity="0.44"/><path d="M56 276.5 C99 273.8, 144.5 279.3, 194 276.5" fill="none" stroke="#9E8257" stroke-width="0.9" opacity="0.32"/><ellipse cx="151.0" cy="211.0" rx="5" ry="3.4" fill="none" stroke="#9E8257" stroke-width="1.6" opacity="0.5"/><ellipse cx="151.0" cy="211.0" rx="2" ry="1.3" fill="#9E8257" opacity="0.5"/></g><rect x="60" y="40" width="130" height="250" rx="2" fill="none" stroke="#231D18" stroke-width="2.4"/><rect x="196" y="40" width="130" height="250" rx="2" fill="#C4A87C"/><g clip-path="url(#a2)"><path d="M192 46.0 C235 39.9, 280.5 52.1, 330 46.0" fill="none" stroke="#9E8257" stroke-width="2.0" opacity="0.30"/><path d="M192 60.4 C235 55.4, 280.5 65.3, 330 60.4" fill="none" stroke="#9E8257" stroke-width="1.1" opacity="0.47"/><path d="M192 74.7 C235 70.8, 280.5 78.7, 330 74.7" fill="none" stroke="#9E8257" stroke-width="0.9" opacity="0.42"/><path d="M192 88.0 C235 83.7, 280.5 92.4, 330 88.0" fill="none" stroke="#9E8257" stroke-width="1.5" opacity="0.52"/><path d="M192 100.8 C235 97.4, 280.5 104.1, 330 100.8" fill="none" stroke="#9E8257" stroke-width="1.6" opacity="0.25"/><path d="M192 114.5 C235 110.2, 280.5 118.8, 330 114.5" fill="none" stroke="#9E8257" stroke-width="1.3" opacity="0.58"/><path d="M192 128.2 C235 122.2, 280.5 134.1, 330 128.2" fill="none" stroke="#9E8257" stroke-width="1.8" opacity="0.28"/><path d="M192 140.2 C235 137.0, 280.5 143.5, 330 140.2" fill="none" stroke="#9E8257" stroke-width="1.2" opacity="0.51"/><path d="M192 154.7 C235 152.0, 280.5 157.5, 330 154.7" fill="none" stroke="#9E8257" stroke-width="2.0" opacity="0.54"/><path d="M192 167.3 C235 161.0, 280.5 173.6, 330 167.3" fill="none" stroke="#9E8257" stroke-width="1.7" opacity="0.46"/><path d="M192 182.6 C235 179.4, 280.5 185.8, 330 182.6" fill="none" stroke="#9E8257" stroke-width="1.8" opacity="0.31"/><path d="M192 193.5 C235 186.7, 280.5 200.4, 330 193.5" fill="none" stroke="#9E8257" stroke-width="1.4" opacity="0.40"/><path d="M192 206.5 C235 201.1, 280.5 212.0, 330 206.5" fill="none" stroke="#9E8257" stroke-width="1.4" opacity="0.54"/><path d="M192 223.2 C235 220.6, 280.5 225.8, 330 223.2" fill="none" stroke="#9E8257" stroke-width="1.7" opacity="0.30"/><path d="M192 233.0 C235 228.6, 280.5 237.4, 330 233.0" fill="none" stroke="#9E8257" stroke-width="1.1" opacity="0.52"/><path d="M192 249.0 C235 243.8, 280.5 254.1, 330 249.0" fill="none" stroke="#9E8257" stroke-width="1.4" opacity="0.42"/><path d="M192 261.9 C235 258.8, 280.5 264.9, 330 261.9" fill="none" stroke="#9E8257" stroke-width="1.8" opacity="0.44"/><path d="M192 275.5 C235 271.3, 280.5 279.6, 330 275.5" fill="none" stroke="#9E8257" stroke-width="1.7" opacity="0.45"/><ellipse cx="255.8" cy="109.4" rx="5" ry="3.4" fill="none" stroke="#9E8257" stroke-width="1.6" opacity="0.5"/><ellipse cx="255.8" cy="109.4" rx="2" ry="1.3" fill="#9E8257" opacity="0.5"/></g><rect x="196" y="40" width="130" height="250" rx="2" fill="none" stroke="#231D18" stroke-width="2.4"/><rect x="332" y="40" width="8" height="250" rx="2" fill="#C4A87C"/><g clip-path="url(#a3)"><path d="M328 46.0 C334.4 39.8, 337.2 52.2, 344 46.0" fill="none" stroke="#9E8257" stroke-width="1.5" opacity="0.58"/><path d="M328 62.9 C334.4 56.4, 337.2 69.5, 344 62.9" fill="none" stroke="#9E8257" stroke-width="1.9" opacity="0.34"/><path d="M328 74.6 C334.4 70.3, 337.2 79.0, 344 74.6" fill="none" stroke="#9E8257" stroke-width="1.3" opacity="0.40"/><path d="M328 89.5 C334.4 85.6, 337.2 93.4, 344 89.5" fill="none" stroke="#9E8257" stroke-width="1.5" opacity="0.60"/><path d="M328 102.0 C334.4 96.5, 337.2 107.5, 344 102.0" fill="none" stroke="#9E8257" stroke-width="1.9" opacity="0.39"/><path d="M328 113.1 C334.4 109.8, 337.2 116.5, 344 113.1" fill="none" stroke="#9E8257" stroke-width="1.6" opacity="0.49"/><path d="M328 127.3 C334.4 121.9, 337.2 132.6, 344 127.3" fill="none" stroke="#9E8257" stroke-width="1.7" opacity="0.48"/><path d="M328 141.0 C334.4 136.9, 337.2 145.2, 344 141.0" fill="none" stroke="#9E8257" stroke-width="1.2" opacity="0.58"/><path d="M328 152.8 C334.4 149.7, 337.2 156.0, 344 152.8" fill="none" stroke="#9E8257" stroke-width="1.3" opacity="0.55"/><path d="M328 167.0 C334.4 161.4, 337.2 172.6, 344 167.0" fill="none" stroke="#9E8257" stroke-width="1.4" opacity="0.43"/><path d="M328 181.8 C334.4 175.4, 337.2 188.2, 344 181.8" fill="none" stroke="#9E8257" stroke-width="0.9" opacity="0.42"/><path d="M328 195.5 C334.4 191.4, 337.2 199.6, 344 195.5" fill="none" stroke="#9E8257" stroke-width="1.6" opacity="0.54"/><path d="M328 208.1 C334.4 203.3, 337.2 212.9, 344 208.1" fill="none" stroke="#9E8257" stroke-width="0.9" opacity="0.56"/><path d="M328 222.5 C334.4 216.0, 337.2 229.0, 344 222.5" fill="none" stroke="#9E8257" stroke-width="1.0" opacity="0.53"/><path d="M328 235.1 C334.4 232.1, 337.2 238.1, 344 235.1" fill="none" stroke="#9E8257" stroke-width="1.9" opacity="0.44"/><path d="M328 246.1 C334.4 243.9, 337.2 248.4, 344 246.1" fill="none" stroke="#9E8257" stroke-width="1.5" opacity="0.25"/><path d="M328 260.7 C334.4 256.9, 337.2 264.5, 344 260.7" fill="none" stroke="#9E8257" stroke-width="1.2" opacity="0.32"/><path d="M328 273.7 C334.4 270.5, 337.2 276.9, 344 273.7" fill="none" stroke="#9E8257" stroke-width="1.2" opacity="0.56"/></g><rect x="332" y="40" width="8" height="250" rx="2" fill="none" stroke="#231D18" stroke-width="2.4"/></g>
<circle cx="182" cy="165" r="5" fill="#231D18"/><circle cx="204" cy="165" r="5" fill="#231D18"/>
<g class="mueble__cotas"><g stroke="#7A6A58" stroke-width="1.4" fill="none">
    <path d="M60 307v10"/><path d="M340 307v10"/><path d="M60 312H340"/>
    <path d="M67 308.5L60 312l7 3.5"/><path d="M333 308.5L340 312l-7 3.5"/>
  </g>
  <text x="200" y="304" fill="#7A6A58" font-family="Overpass Mono, monospace" font-size="12" text-anchor="middle">240 cm</text><g stroke="#7A6A58" stroke-width="1.4" fill="none">
    <path d="M39 40h10"/><path d="M39 290h10"/><path d="M44 40V290"/>
    <path d="M40.5 47L44 40l3.5 7"/><path d="M40.5 283L44 290l3.5 7"/>
  </g>
  <text x="35" y="165" fill="#7A6A58" font-family="Overpass Mono, monospace" font-size="12" text-anchor="middle" transform="rotate(-90 35 165)">215 cm</text></g>
</svg>
