<svg xmlns="http://www.w3.org/2000/svg" viewBox="0 0 420 340" role="img" aria-label="Alzado dibujado del mueble Banco Cantón, con sus medidas">
<title>Banco Cantón</title>
<defs><clipPath id="b1"><rect x="60" y="170" width="300" height="18" rx="2"/></clipPath><clipPath id="b2"><rect x="78" y="188" width="14" height="90" rx="2"/></clipPath><clipPath id="b3"><rect x="328" y="188" width="14" height="90" rx="2"/></clipPath><clipPath id="b4"><rect x="60" y="90" width="300" height="14" rx="2"/></clipPath><clipPath id="b5"><rect x="78" y="104" width="14" height="66" rx="2"/></clipPath><clipPath id="b6"><rect x="328" y="104" width="14" height="66" rx="2"/></clipPath></defs>
<g class="mueble__piezas"><rect x="60" y="170" width="300" height="18" rx="2" fill="#CDB27F"/><g clip-path="url(#b1)"><path d="M56 176.0 C150 169.2, 255 182.8, 364 176.0" fill="none" stroke="#A78956" stroke-width="1.0" opacity="0.42"/><path d="M56 179.1 C150 174.5, 255 183.7, 364 179.1" fill="none" stroke="#A78956" stroke-width="1.9" opacity="0.28"/><path d="M56 182.0 C150 179.0, 255 184.9, 364 182.0" fill="none" stroke="#A78956" stroke-width="1.3" opacity="0.59"/><ellipse cx="326.5" cy="179.5" rx="5" ry="3.4" fill="none" stroke="#A78956" stroke-width="1.6" opacity="0.5"/><ellipse cx="326.5" cy="179.5" rx="2" ry="1.3" fill="#A78956" opacity="0.5"/></g><rect x="60" y="170" width="300" height="18" rx="2" fill="none" stroke="#231D18" stroke-width="2.4"/><rect x="78" y="188" width="14" height="90" rx="2" fill="#CDB27F"/><g clip-path="url(#b2)"><path d="M74 194.0 C82.2 187.1, 87.1 200.9, 96 194.0" fill="none" stroke="#A78956" stroke-width="1.4" opacity="0.53"/><path d="M74 208.7 C82.2 202.9, 87.1 214.5, 96 208.7" fill="none" stroke="#A78956" stroke-width="1.0" opacity="0.38"/><path d="M74 223.5 C82.2 220.4, 87.1 226.6, 96 223.5" fill="none" stroke="#A78956" stroke-width="1.7" opacity="0.54"/><path d="M74 237.7 C82.2 235.6, 87.1 239.8, 96 237.7" fill="none" stroke="#A78956" stroke-width="1.3" opacity="0.54"/><path d="M74 251.0 C82.2 248.1, 87.1 253.8, 96 251.0" fill="none" stroke="#A78956" stroke-width="1.1" opacity="0.53"/><path d="M74 261.9 C82.2 255.1, 87.1 268.7, 96 261.9" fill="none" stroke="#A78956" stroke-width="1.5" opacity="0.29"/></g><rect x="78" y="188" width="14" height="90" rx="2" fill="none" stroke="#231D18" stroke-width="2.4"/><rect x="328" y="188" width="14" height="90" rx="2" fill="#CDB27F"/><g clip-path="url(#b3)"><path d="M324 194.0 C332.2 187.1, 337.1 201.0, 346 194.0" fill="none" stroke="#A78956" stroke-width="0.9" opacity="0.29"/><path d="M324 211.3 C332.2 205.8, 337.1 216.8, 346 211.3" fill="none" stroke="#A78956" stroke-width="1.9" opacity="0.43"/><path d="M324 221.8 C332.2 219.1, 337.1 224.5, 346 221.8" fill="none" stroke="#A78956" stroke-width="1.7" opacity="0.51"/><path d="M324 236.2 C332.2 233.5, 337.1 238.9, 346 236.2" fill="none" stroke="#A78956" stroke-width="1.4" opacity="0.57"/><path d="M324 247.7 C332.2 241.4, 337.1 254.1, 346 247.7" fill="none" stroke="#A78956" stroke-width="0.9" opacity="0.49"/><path d="M324 261.6 C332.2 255.8, 337.1 267.5, 346 261.6" fill="none" stroke="#A78956" stroke-width="1.1" opacity="0.34"/><ellipse cx="332.2" cy="243.9" rx="5" ry="3.4" fill="none" stroke="#A78956" stroke-width="1.6" opacity="0.5"/><ellipse cx="332.2" cy="243.9" rx="2" ry="1.3" fill="#A78956" opacity="0.5"/></g><rect x="328" y="188" width="14" height="90" rx="2" fill="none" stroke="#231D18" stroke-width="2.4"/><rect x="60" y="90" width="300" height="14" rx="2" fill="#CDB27F"/><g clip-path="url(#b4)"><path d="M56 96.0 C150 94.0, 255 98.1, 364 96.0" fill="none" stroke="#A78956" stroke-width="1.0" opacity="0.33"/><path d="M56 100.0 C150 95.2, 255 104.7, 364 100.0" fill="none" stroke="#A78956" stroke-width="1.7" opacity="0.29"/><path d="M56 102.6 C150 98.2, 255 107.0, 364 102.6" fill="none" stroke="#A78956" stroke-width="1.9" opacity="0.53"/></g><rect x="60" y="90" width="300" height="14" rx="2" fill="none" stroke="#231D18" stroke-width="2.4"/><rect x="78" y="104" width="14" height="66" rx="2" fill="#CDB27F"/><g clip-path="url(#b5)"><path d="M74 110.0 C82.2 107.9, 87.1 112.1, 96 110.0" fill="none" stroke="#A78956" stroke-width="1.2" opacity="0.58"/><path d="M74 121.4 C82.2 114.5, 87.1 128.4, 96 121.4" fill="none" stroke="#A78956" stroke-width="1.3" opacity="0.52"/><path d="M74 132.5 C82.2 128.6, 87.1 136.4, 96 132.5" fill="none" stroke="#A78956" stroke-width="1.4" opacity="0.55"/><path d="M74 144.2 C82.2 138.0, 87.1 150.3, 96 144.2" fill="none" stroke="#A78956" stroke-width="1.4" opacity="0.33"/><path d="M74 155.9 C82.2 151.3, 87.1 160.5, 96 155.9" fill="none" stroke="#A78956" stroke-width="0.8" opacity="0.37"/><ellipse cx="86.3" cy="131.1" rx="5" ry="3.4" fill="none" stroke="#A78956" stroke-width="1.6" opacity="0.5"/><ellipse cx="86.3" cy="131.1" rx="2" ry="1.3" fill="#A78956" opacity="0.5"/></g><rect x="78" y="104" width="14" height="66" rx="2" fill="none" stroke="#231D18" stroke-width="2.4"/><rect x="328" y="104" width="14" height="66" rx="2" fill="#CDB27F"/><g clip-path="url(#b6)"><path d="M324 110.0 C332.2 107.8, 337.1 112.2, 346 110.0" fill="none" stroke="#A78956" stroke-width="0.9" opacity="0.38"/><path d="M324 122.4 C332.2 116.7, 337.1 128.1, 346 122.4" fill="none" stroke="#A78956" stroke-width="1.6" opacity="0.44"/><path d="M324 134.8 C332.2 130.5, 337.1 139.1, 346 134.8" fill="none" stroke="#A78956" stroke-width="1.1" opacity="0.59"/><path d="M324 144.2 C332.2 141.0, 337.1 147.3, 346 144.2" fill="none" stroke="#A78956" stroke-width="1.2" opacity="0.49"/><path d="M324 156.5 C332.2 152.0, 337.1 161.0, 346 156.5" fill="none" stroke="#A78956" stroke-width="1.3" opacity="0.33"/><ellipse cx="333.2" cy="153.8" rx="5" ry="3.4" fill="none" stroke="#A78956" stroke-width="1.6" opacity="0.5"/><ellipse cx="333.2" cy="153.8" rx="2" ry="1.3" fill="#A78956" opacity="0.5"/></g><rect x="328" y="104" width="14" height="66" rx="2" fill="none" stroke="#231D18" stroke-width="2.4"/></g>

<g class="mueble__cotas"><g stroke="#7A6A58" stroke-width="1.4" fill="none">
    <path d="M60 295v10"/><path d="M360 295v10"/><path d="M60 300H360"/>
    <path d="M67 296.5L60 300l7 3.5"/><path d="M353 296.5L360 300l-7 3.5"/>
  </g>
  <text x="210" y="292" fill="#7A6A58" font-family="Overpass Mono, monospace" font-size="12" text-anchor="middle">160 cm</text><g stroke="#7A6A58" stroke-width="1.4" fill="none">
    <path d="M39 90h10"/><path d="M39 278h10"/><path d="M44 90V278"/>
    <path d="M40.5 97L44 90l3.5 7"/><path d="M40.5 271L44 278l3.5 7"/>
  </g>
  <text x="35" y="184" fill="#7A6A58" font-family="Overpass Mono, monospace" font-size="12" text-anchor="middle" transform="rotate(-90 35 184)">92 cm</text></g>
</svg>
